<svg xmlns="http://www.w3.org/2000/svg" viewBox="0 0 360 720" width="360" height="720" font-family="Georgia, 'Spectral', serif">
  <rect x="2" y="2" width="356" height="716" rx="30" fill="#050403"/>
  <rect x="12" y="12" width="336" height="696" rx="22" fill="#16130d"/>

  <g>
    <rect x="32" y="34" width="3" height="22" fill="#F2B23E"/>
    <rect x="37" y="34" width="3" height="22" fill="#F2B23E"/>
    <rect x="42" y="34" width="3" height="22" fill="#F2B23E"/>
    <rect x="47" y="34" width="3" height="22" fill="#F2B23E"/>
    <rect x="30" y="43" width="22" height="2.6" fill="#F47C6A"/>
    <text x="64" y="53" font-weight="800" font-size="23" letter-spacing="3" fill="#F5F0E4">LICTOR</text>
    <text x="328" y="51" text-anchor="end" font-family="monospace" font-size="10" fill="#998f7b">sine mora</text>
  </g>

  <line x1="32" y1="67" x2="328" y2="67" stroke="#F5F0E4" stroke-opacity="0.2"/>
  <text x="32" y="88" font-family="monospace" font-size="11" letter-spacing="1.6" fill="#c8c1b0">ЗАДАЧИ</text>
  <text x="328" y="88" text-anchor="end" font-family="monospace" font-size="11" letter-spacing="1.6" fill="#c8c1b0">3 АКТИВНЫХ</text>

  <rect x="32" y="100" width="296" height="36" fill="#F2B23E"/>
  <text x="180" y="123" text-anchor="middle" font-family="monospace" font-size="13" fill="#1a1205">+ добавить задачу</text>

  <text x="32" y="162" font-style="italic" font-size="14" fill="#c8c1b0">Лучшее время - до того, как припрёт.</text>

  <g>
    <line x1="32" y1="182" x2="328" y2="182" stroke="#F5F0E4" stroke-opacity="0.12"/>
    <rect x="32" y="190" width="3" height="56" fill="#948c79"/>
    <text x="46" y="208" font-family="sans-serif" font-size="16" fill="#F5F0E4">Прочитать 20 страниц</text>
    <text x="46" y="227" font-family="monospace" font-size="13" fill="#c8c1b0">MONEO · через 6 ч</text>
    <text x="46" y="244" font-style="italic" font-size="12.5" fill="#998f7b">Маленький шаг - тоже шаг.</text>
    <rect x="302" y="194" width="22" height="22" fill="none" stroke="#948c79" stroke-width="1.6"/>
  </g>

  <g>
    <line x1="32" y1="256" x2="328" y2="256" stroke="#F5F0E4" stroke-opacity="0.12"/>
    <rect x="32" y="264" width="3" height="56" fill="#F2B23E"/>
    <text x="46" y="282" font-family="sans-serif" font-size="16" fill="#F5F0E4">Позвонить в деканат</text>
    <text x="46" y="301" font-family="monospace" font-size="13" fill="#F2B23E">INSTO · через 25 мин</text>
    <text x="46" y="318" font-style="italic" font-size="12.5" fill="#998f7b">Сделай, пока это легко.</text>
    <rect x="302" y="268" width="22" height="22" fill="none" stroke="#F2B23E" stroke-width="1.6"/>
  </g>

  <g>
    <rect x="12" y="330" width="336" height="82" fill="#251410"/>
    <rect x="32" y="338" width="3" height="62" fill="#E05442"/>
    <text x="46" y="358" font-family="sans-serif" font-size="16" fill="#F5F0E4">Сдать лабу ИТМО</text>
    <text x="46" y="377" font-family="monospace" font-size="13" fill="#F47C6A">COGO · просрочено</text>
    <text x="46" y="394" font-style="italic" font-size="12.5" fill="#998f7b">Без вариантов. Только вперёд.</text>
    <text x="328" y="364" text-anchor="end" font-weight="800" font-size="22" fill="#F47C6A">−12:24</text>
  </g>

  <line x1="12" y1="650" x2="348" y2="650" stroke="#F5F0E4" stroke-opacity="0.12"/>
  <rect x="40" y="650" width="80" height="2" fill="#F2B23E"/>
  <g stroke="#F2B23E" stroke-width="1.6" stroke-linecap="round">
    <line x1="64" y1="666" x2="86" y2="666"/>
    <line x1="64" y1="672" x2="86" y2="672"/>
    <line x1="64" y1="678" x2="86" y2="678"/>
  </g>
  <text x="80" y="698" text-anchor="middle" font-family="monospace" font-size="11" fill="#F2B23E">ЗАДАЧИ</text>

  <circle cx="180" cy="671" r="8" fill="none" stroke="#998f7b" stroke-width="1.6"/>
  <line x1="180" y1="663" x2="180" y2="679" stroke="#998f7b" stroke-width="1.6"/>
  <text x="180" y="698" text-anchor="middle" font-family="monospace" font-size="11" fill="#998f7b">МОЗГ</text>

  <g stroke="#998f7b" stroke-width="1.6" stroke-linecap="round">
    <line x1="270" y1="666" x2="290" y2="666"/>
    <line x1="270" y1="676" x2="290" y2="676"/>
  </g>
  <circle cx="286" cy="666" r="2.4" fill="#998f7b"/>
  <circle cx="274" cy="676" r="2.4" fill="#998f7b"/>
  <text x="290" y="698" text-anchor="middle" font-family="monospace" font-size="11" fill="#998f7b">РЕЖИМ</text>
</svg>
